<?xml version="1.0" encoding="UTF-8" standalone="no"?>
<!-- Created with Inkscape (http://www.inkscape.org/) -->

<svg
   width="52.15456mm"
   height="42.133049mm"
   viewBox="0 0 52.15456 42.133049"
   version="1.1"
   id="svg1"
   xmlns="http://www.w3.org/2000/svg"
   xmlns:svg="http://www.w3.org/2000/svg">
  <defs
     id="defs1">
    <clipPath
       clipPathUnits="userSpaceOnUse"
       id="clipPath52">
      <path
         d="M 0,841.89 H 595.276 V 0 H 0 Z"
         transform="translate(-444.53081,-221.5783)"
         id="path52" />
    </clipPath>
    <clipPath
       clipPathUnits="userSpaceOnUse"
       id="clipPath54">
      <path
         d="M 0,841.89 H 595.276 V 0 H 0 Z"
         transform="translate(-419.70361,-228.3898)"
         id="path54" />
    </clipPath>
    <clipPath
       clipPathUnits="userSpaceOnUse"
       id="clipPath56">
      <path
         d="M 0,841.89 H 595.276 V 0 H 0 Z"
         transform="translate(-473.04931,-153.89271)"
         id="path56" />
    </clipPath>
    <clipPath
       clipPathUnits="userSpaceOnUse"
       id="clipPath58">
      <path
         d="M 0,841.89 H 595.276 V 0 H 0 Z"
         transform="translate(-492.38481,-153.89271)"
         id="path58" />
    </clipPath>
    <clipPath
       clipPathUnits="userSpaceOnUse"
       id="clipPath60">
      <path
         d="M 0,841.89 H 595.276 V 0 H 0 Z"
         transform="translate(-445.09421,-153.89271)"
         id="path60" />
    </clipPath>
    <clipPath
       clipPathUnits="userSpaceOnUse"
       id="clipPath62">
      <path
         d="M 0,841.89 H 595.276 V 0 H 0 Z"
         transform="translate(-392.51761,-153.89271)"
         id="path62" />
    </clipPath>
    <clipPath
       clipPathUnits="userSpaceOnUse"
       id="clipPath64">
      <path
         d="M 0,841.89 H 595.276 V 0 H 0 Z"
         transform="translate(-417.71041,-153.89271)"
         id="path64" />
    </clipPath>
    <clipPath
       clipPathUnits="userSpaceOnUse"
       id="clipPath66">
      <path
         d="M 0,841.89 H 595.276 V 0 H 0 Z"
         transform="translate(-366.56251,-145.86831)"
         id="path66" />
    </clipPath>
    <clipPath
       clipPathUnits="userSpaceOnUse"
       id="clipPath68">
      <path
         d="M 0,841.89 H 595.276 V 0 H 0 Z"
         transform="translate(-514.38721,-153.89271)"
         id="path68" />
    </clipPath>
    <clipPath
       clipPathUnits="userSpaceOnUse"
       id="clipPath70">
      <path
         d="M 0,841.89 H 595.276 V 0 H 0 Z"
         transform="translate(-383.56451,-153.89271)"
         id="path70" />
    </clipPath>
    <clipPath
       clipPathUnits="userSpaceOnUse"
       id="clipPath72">
      <path
         d="M 0,841.89 H 595.276 V 0 H 0 Z"
         transform="translate(-433.95021,-153.89271)"
         id="path72" />
    </clipPath>
    <clipPath
       clipPathUnits="userSpaceOnUse"
       id="clipPath74">
      <path
         d="M 0,841.89 H 595.276 V 0 H 0 Z"
         transform="translate(-453.23781,-153.89271)"
         id="path74" />
    </clipPath>
    <clipPath
       clipPathUnits="userSpaceOnUse"
       id="clipPath76">
      <path
         d="M 0,841.89 H 595.276 V 0 H 0 Z"
         transform="translate(-479.85991,-153.89271)"
         id="path76" />
    </clipPath>
    <clipPath
       clipPathUnits="userSpaceOnUse"
       id="clipPath78">
      <path
         d="M 0,841.89 H 595.276 V 0 H 0 Z"
         transform="translate(-427.85451,-153.89271)"
         id="path78" />
    </clipPath>
    <clipPath
       clipPathUnits="userSpaceOnUse"
       id="clipPath80">
      <path
         d="M 0,841.89 H 595.276 V 0 H 0 Z"
         transform="translate(-368.13381,-153.89271)"
         id="path80" />
    </clipPath>
    <clipPath
       clipPathUnits="userSpaceOnUse"
       id="clipPath82">
      <path
         d="M 0,841.89 H 595.276 V 0 H 0 Z"
         transform="translate(-498.95701,-153.89271)"
         id="path82" />
    </clipPath>
    <clipPath
       clipPathUnits="userSpaceOnUse"
       id="clipPath84">
      <path
         d="M 0,841.89 H 595.276 V 0 H 0 Z"
         transform="translate(-402.89941,-153.89271)"
         id="path84" />
    </clipPath>
    <clipPath
       clipPathUnits="userSpaceOnUse"
       id="clipPath86">
      <path
         d="M 0,841.89 H 595.276 V 0 H 0 Z"
         transform="translate(-468.33451,-153.89271)"
         id="path86" />
    </clipPath>
    <clipPath
       clipPathUnits="userSpaceOnUse"
       id="clipPath88">
      <path
         d="M 0,841.89 H 595.276 V 0 H 0 Z"
         transform="translate(-501.72221,-148.2775)"
         id="path88" />
    </clipPath>
    <clipPath
       clipPathUnits="userSpaceOnUse"
       id="clipPath90">
      <path
         d="M 0,841.89 H 595.276 V 0 H 0 Z"
         transform="translate(-406.18901,-153.8556)"
         id="path90" />
    </clipPath>
    <clipPath
       clipPathUnits="userSpaceOnUse"
       id="clipPath92">
      <path
         d="M 0,841.89 H 595.276 V 0 H 0 Z"
         transform="translate(-396.48931,-139.3087)"
         id="path92" />
    </clipPath>
    <clipPath
       clipPathUnits="userSpaceOnUse"
       id="clipPath94">
      <path
         d="M 0,841.89 H 595.276 V 0 H 0 Z"
         transform="translate(-468.13961,-139.3078)"
         id="path94" />
    </clipPath>
    <clipPath
       clipPathUnits="userSpaceOnUse"
       id="clipPath96">
      <path
         d="M 0,841.89 H 595.276 V 0 H 0 Z"
         transform="translate(-396.23191,-146.338)"
         id="path96" />
    </clipPath>
    <clipPath
       clipPathUnits="userSpaceOnUse"
       id="clipPath98">
      <path
         d="M 0,841.89 H 595.276 V 0 H 0 Z"
         transform="translate(-416.87741,-177.5763)"
         id="path98" />
    </clipPath>
    <clipPath
       clipPathUnits="userSpaceOnUse"
       id="clipPath100">
      <path
         d="M 0,841.89 H 595.276 V 0 H 0 Z"
         id="path100" />
    </clipPath>
  </defs>
  <g
     id="layer1"
     transform="translate(-79.169474,-125.94165)">
    <path
       id="path51"
       d="m 0,0 -7.099,12.295 c -1.775,3.074 -6.212,3.074 -7.986,0 l -7.786,-13.483 c -0.412,-0.714 -0.412,-1.593 0,-2.306 l 4.735,-8.201 H 6.045 c 2.472,0 4.755,1.319 5.991,3.459 L 22.13,9.247 c 1.236,2.141 1.236,4.777 0,6.917 l -1.407,2.437 c -0.887,1.537 -3.106,1.537 -3.994,0 L 5.991,0 C 4.659,-2.306 1.331,-2.306 0,0"
       style="fill:#14274d icc-color(Japan-Color-2001-Coated, 1, 0.95999146, 0.52999878, 0.23999023);fill-opacity:1;fill-rule:nonzero;stroke:none"
       transform="matrix(0.35277776,0,0,-0.35277776,106.67495,139.03201)"
       clip-path="url(#clipPath52)" />
    <path
       id="path53"
       d="m 0,0 10.739,18.601 c 1.331,2.305 4.659,2.305 5.991,0 L 23.829,6.306 c 1.775,-3.076 6.212,-3.076 7.987,0 l 7.785,13.483 c 0.412,0.713 0.412,1.592 0,2.306 l -4.735,8.2 H 10.685 c -2.472,0 -4.755,-1.318 -5.991,-3.459 L -5.4,9.353 c -1.235,-2.14 -1.235,-4.777 0,-6.917 L -3.994,0 C -3.106,-1.538 -0.888,-1.538 0,0"
       style="fill:#f18a31 icc-color(Japan-Color-2001-Coated, 0, 0.56999207, 0.82998657, 0);fill-opacity:1;fill-rule:nonzero;stroke:none"
       transform="matrix(0.35277776,0,0,-0.35277776,97.916471,136.62906)"
       clip-path="url(#clipPath54)" />
    <path
       id="path55"
       d="m 0,0 c 0.204,-0.062 0.419,-0.079 0.617,-0.171 0.492,-0.228 0.66,-0.665 0.44,-1.159 -0.165,-0.371 -0.465,-0.639 -0.732,-0.928 -1.297,-1.401 -2.619,-2.777 -3.946,-4.151 -2.338,-2.42 -4.686,-4.834 -7.056,-7.226 -0.15,-0.151 -0.314,-0.297 -0.438,-0.468 -0.274,-0.38 -0.647,-0.482 -1.092,-0.476 -0.864,0.011 -1.73,-0.004 -2.595,-0.002 -0.272,10e-4 -0.535,0.066 -0.784,0.176 -0.645,0.278 -0.819,0.89 -0.405,1.457 0.144,0.197 0.317,0.375 0.489,0.55 1.712,1.749 3.426,3.497 5.141,5.244 1.548,1.577 3.098,3.153 4.647,4.729 0.794,0.808 1.587,1.616 2.381,2.425 z"
       style="fill:#14274d icc-color(Japan-Color-2001-Coated, 1, 0.95999146, 0.52999878, 0.23999023);fill-opacity:1;fill-rule:nonzero;stroke:none"
       transform="matrix(0.35277776,0,0,-0.35277776,116.73565,162.90998)"
       clip-path="url(#clipPath56)" />
    <path
       id="path57"
       d="m 0,0 c 0.153,-0.041 0.308,-0.073 0.457,-0.128 0.597,-0.217 0.778,-0.695 0.796,-1.275 0.05,-1.589 0.016,-3.179 0.002,-4.769 -0.01,-1.115 -0.004,-2.23 -0.015,-3.347 -0.011,-1.051 -0.034,-2.103 -0.051,-3.154 -0.001,-0.04 -0.002,-0.079 -0.004,-0.119 -0.099,-1.212 -0.563,-1.661 -1.783,-1.75 -0.444,-0.033 -0.886,-0.039 -1.331,-0.045 -3.078,-0.04 -6.156,-0.04 -9.234,-0.038 -0.405,10e-4 -0.405,10e-4 -0.405,0.409 0,0.205 0.003,0.41 10e-4,0.617 -10e-4,0.149 0.07,0.217 0.219,0.211 0.079,-0.003 0.159,10e-4 0.238,10e-4 h 7.784 c 0.213,0 0.428,-0.006 0.64,0.038 0.373,0.078 0.516,0.212 0.525,0.592 0.014,0.561 -0.003,1.123 -0.008,1.685 -10e-4,0.134 -0.017,0.268 -0.018,0.402 -0.007,1.891 0.003,3.781 -0.024,5.672 -0.016,1.013 -0.018,2.025 -0.029,3.037 -0.005,0.475 -0.151,0.617 -0.635,0.617 -2.729,0.002 -5.459,0 -8.188,0.002 -0.602,0 -0.522,-0.067 -0.526,0.536 -0.002,0.269 0.011,0.537 0.017,0.806 z"
       style="fill:#14274d icc-color(Japan-Color-2001-Coated, 1, 0.95999146, 0.52999878, 0.23999023);fill-opacity:1;fill-rule:nonzero;stroke:none"
       transform="matrix(0.35277776,0,0,-0.35277776,123.55678,162.90998)"
       clip-path="url(#clipPath58)" />
    <path
       id="path59"
       d="M 0,0 C 0.676,-0.203 0.792,-0.36 0.827,-1.078 0.881,-2.169 0.89,-3.26 0.925,-4.351 0.952,-5.236 0.958,-6.122 0.969,-7.008 0.976,-7.615 0.691,-7.909 0.077,-7.931 -0.605,-7.955 -1.287,-7.97 -1.969,-7.985 -2.762,-8.004 -3.555,-8.02 -4.348,-8.038 c -0.076,-10e-4 -0.178,0.024 -0.21,-0.067 -0.031,-0.092 0.066,-0.133 0.123,-0.183 2.036,-1.777 4.072,-3.554 6.107,-5.33 0.287,-0.25 0.573,-0.501 0.858,-0.753 0.037,-0.034 0.106,-0.064 0.074,-0.132 -0.024,-0.049 -0.083,-0.038 -0.128,-0.038 -1.136,0.009 -2.27,0.019 -3.405,0.028 -0.071,10e-4 -0.145,0.023 -0.213,0.01 -0.44,-0.082 -0.739,0.144 -1.05,0.415 -1.514,1.326 -3.043,2.634 -4.562,3.954 -0.641,0.556 -1.268,1.126 -1.906,1.685 -0.181,0.159 -0.266,0.343 -0.254,0.583 0.01,0.206 0,0.411 10e-4,0.617 0.003,0.32 0.007,0.325 0.341,0.325 1.246,0.001 2.492,-0.006 3.739,0.003 0.785,0.007 1.571,-0.049 2.354,0.037 0.497,0.054 0.65,0.225 0.652,0.725 0.005,1.203 0.004,2.406 10e-4,3.608 -0.003,0.66 -0.171,0.827 -0.839,0.828 -2.325,0.003 -4.651,0.002 -6.976,0.002 -0.393,0 -0.401,0.002 -0.407,0.393 -0.006,0.442 -10e-4,0.886 -10e-4,1.328 z"
       style="fill:#14274d icc-color(Japan-Color-2001-Coated, 1, 0.95999146, 0.52999878, 0.23999023);fill-opacity:1;fill-rule:nonzero;stroke:none"
       transform="matrix(0.35277776,0,0,-0.35277776,106.87371,162.90998)"
       clip-path="url(#clipPath60)" />
    <path
       id="path61"
       d="m 0,0 c 0.059,-0.102 0.049,-0.214 0.049,-0.323 0,-4.659 0.001,-9.319 0,-13.978 0,-0.34 -0.002,-0.344 -0.346,-0.338 -1.094,0.017 -2.188,0.035 -3.283,0.056 -0.387,0.008 -0.565,0.16 -0.629,0.541 -0.025,0.147 -0.034,0.299 -0.034,0.448 -10e-4,4.24 -10e-4,8.48 0,12.72 0,0.56 0.233,0.785 0.797,0.793 0.841,0.015 1.681,0.033 2.522,0.052 0.07,0.001 0.14,0.019 0.209,0.029 z"
       style="fill:#14274d icc-color(Japan-Color-2001-Coated, 1, 0.95999146, 0.52999878, 0.23999023);fill-opacity:1;fill-rule:nonzero;stroke:none"
       transform="matrix(0.35277776,0,0,-0.35277776,88.325855,162.90998)"
       clip-path="url(#clipPath62)" />
    <path
       id="path63"
       d="M 0,0 C 0.354,-0.121 0.537,-0.392 0.667,-0.723 1.6,-3.095 2.493,-5.481 3.375,-7.871 3.499,-8.208 3.505,-8.522 3.369,-8.86 2.888,-10.049 2.423,-11.243 1.95,-12.436 c -0.024,-0.06 -0.023,-0.165 -0.117,-0.152 -0.079,0.01 -0.082,0.109 -0.106,0.172 -0.912,2.405 -1.822,4.811 -2.732,7.216 -0.133,0.347 -0.264,0.695 -0.399,1.042 -0.028,0.07 -0.039,0.176 -0.132,0.179 -0.1,0.003 -0.104,-0.106 -0.131,-0.174 -0.456,-1.174 -0.913,-2.346 -1.361,-3.522 -0.76,-1.988 -1.513,-3.979 -2.27,-5.969 -0.062,-0.162 -0.124,-0.324 -0.226,-0.469 -0.165,-0.238 -0.39,-0.365 -0.678,-0.384 -0.443,-0.029 -0.886,-0.061 -1.329,-0.092 -0.299,-0.02 -0.307,-0.007 -0.198,0.267 0.644,1.618 1.288,3.235 1.929,4.853 1.227,3.099 2.452,6.197 3.677,9.295 0.024,0.059 0.05,0.116 0.075,0.174 z"
       style="fill:#14274d icc-color(Japan-Color-2001-Coated, 1, 0.95999146, 0.52999878, 0.23999023);fill-opacity:1;fill-rule:nonzero;stroke:none"
       transform="matrix(0.35277776,0,0,-0.35277776,97.213315,162.90998)"
       clip-path="url(#clipPath64)" />
    <path
       id="path65"
       d="M 0,0 C 0.041,0.106 0.031,0.218 0.031,0.328 0.038,2.044 0.042,3.761 0.052,5.477 0.055,6.045 0.071,6.614 0.083,7.183 0.085,7.258 0.058,7.357 0.153,7.391 0.229,7.417 0.281,7.342 0.33,7.293 1.62,6.007 2.909,4.719 4.198,3.434 4.307,3.325 4.351,3.2 4.35,3.05 4.343,1.461 4.306,-0.128 4.258,-1.716 4.229,-2.688 4.22,-3.659 4.198,-4.632 4.19,-5.043 4.174,-5.453 4.154,-5.864 4.136,-6.228 3.975,-6.393 3.613,-6.429 3.455,-6.444 3.296,-6.459 3.138,-6.457 2.092,-6.448 1.047,-6.535 0,-6.506 Z"
       style="fill:#14274d icc-color(Japan-Color-2001-Coated, 1, 0.95999146, 0.52999878, 0.23999023);fill-opacity:1;fill-rule:nonzero;stroke:none"
       transform="matrix(0.35277776,0,0,-0.35277776,79.169473,165.74081)"
       clip-path="url(#clipPath66)" />
    <path
       id="path67"
       d="m 0,0 c 0.005,-0.118 0.015,-0.236 0.015,-0.354 -0.006,-1.956 0.01,-3.91 -0.025,-5.864 -0.035,-1.963 -0.011,-3.925 -0.045,-5.886 -0.01,-0.523 -0.023,-1.044 -0.028,-1.567 -0.001,-0.067 0.029,-0.157 -0.045,-0.195 -0.083,-0.042 -0.126,0.046 -0.173,0.092 -1.302,1.277 -2.6,2.555 -3.903,3.831 -0.104,0.102 -0.146,0.217 -0.146,0.359 0.005,1.599 0.045,3.196 0.092,4.793 0.026,0.886 0.036,1.771 0.056,2.657 0.012,0.498 0.028,0.996 0.046,1.494 0.011,0.319 0.143,0.475 0.449,0.561 0.148,0.04 0.298,0.034 0.449,0.041 0.451,0.018 0.904,-0.029 1.353,0.038 z"
       style="fill:#14274d icc-color(Japan-Color-2001-Coated, 1, 0.95999146, 0.52999878, 0.23999023);fill-opacity:1;fill-rule:nonzero;stroke:none"
       transform="matrix(0.35277776,0,0,-0.35277776,131.31874,162.90998)"
       clip-path="url(#clipPath68)" />
    <path
       id="path69"
       d="M 0,0 C 0.055,-0.103 0.048,-0.214 0.047,-0.324 0.03,-2.634 0.033,-4.942 -0.01,-7.252 c -0.033,-1.754 -0.011,-3.51 -0.04,-5.265 -0.006,-0.379 -0.018,-0.758 -0.033,-1.137 -0.002,-0.073 0.044,-0.178 -0.053,-0.209 -0.072,-0.024 -0.118,0.066 -0.167,0.114 -0.9,0.881 -1.799,1.764 -2.698,2.645 -0.374,0.365 -0.746,0.732 -1.127,1.089 -0.156,0.147 -0.226,0.308 -0.222,0.523 0.042,2.023 0.074,4.048 0.116,6.071 0.017,0.877 0.054,1.753 0.075,2.63 0.013,0.522 0.203,0.729 0.735,0.747 0.428,0.014 0.857,0.009 1.285,0.014 0.095,10e-4 0.191,-0.01 0.282,0.03 z"
       style="fill:#14274d icc-color(Japan-Color-2001-Coated, 1, 0.95999146, 0.52999878, 0.23999023);fill-opacity:1;fill-rule:nonzero;stroke:none"
       transform="matrix(0.35277776,0,0,-0.35277776,85.167399,162.90998)"
       clip-path="url(#clipPath70)" />
    <path
       id="path71"
       d="m 0,0 c 0.061,-0.101 0.051,-0.214 0.051,-0.323 0,-4.385 0,-8.769 -10e-4,-13.154 -0.001,-0.141 -0.013,-0.285 -0.041,-0.423 -0.085,-0.421 -0.329,-0.628 -0.763,-0.639 -0.768,-0.021 -1.538,-0.032 -2.308,-0.043 -0.295,-0.004 -0.321,0.019 -0.317,0.303 0.031,2.548 0.059,5.095 0.104,7.642 0.007,0.45 0.021,0.902 0.027,1.353 0.019,1.669 0.037,3.338 0.055,5.008 10e-4,0.094 10e-4,0.19 0.05,0.276 z"
       style="fill:#14274d icc-color(Japan-Color-2001-Coated, 1, 0.95999146, 0.52999878, 0.23999023);fill-opacity:1;fill-rule:nonzero;stroke:none"
       transform="matrix(0.35277776,0,0,-0.35277776,102.94236,162.90998)"
       clip-path="url(#clipPath72)" />
    <path
       id="path73"
       d="m 0,0 c 0.575,-0.209 0.731,-0.422 0.73,-1.041 -0.004,-3.157 0,-6.315 -0.027,-9.473 -0.009,-1.005 -0.016,-2.008 -0.029,-3.013 -0.007,-0.631 -0.226,-0.918 -0.854,-0.985 -0.758,-0.081 -1.522,-0.026 -2.284,-0.028 -0.14,0 -0.167,0.091 -0.166,0.207 0.007,0.68 0.012,1.36 0.021,2.041 10e-4,0.118 0.019,0.237 0.02,0.355 0.024,2.381 0.024,4.764 0.075,7.144 0.034,1.598 -0.006,3.196 0.086,4.793 z"
       style="fill:#14274d icc-color(Japan-Color-2001-Coated, 1, 0.95999146, 0.52999878, 0.23999023);fill-opacity:1;fill-rule:nonzero;stroke:none"
       transform="matrix(0.35277776,0,0,-0.35277776,109.74659,162.90998)"
       clip-path="url(#clipPath74)" />
    <path
       id="path75"
       d="m 0,0 c 0.004,-0.118 0.011,-0.236 0.011,-0.354 v -13.863 c 0,-0.41 0,-0.412 -0.422,-0.412 -0.444,-0.002 -0.888,-0.004 -1.333,0.003 -0.939,0.017 -1.399,0.479 -1.397,1.42 10e-4,0.886 0.022,1.771 0.032,2.658 0.022,1.953 0.02,3.907 0.07,5.861 0.03,1.162 -0.005,2.325 0.064,3.487 0.031,0.513 0.288,0.84 0.758,1.013 0.356,0.13 0.727,0.154 1.102,0.154 0.134,-0.001 0.27,-0.018 0.401,0.033 z"
       style="fill:#14274d icc-color(Japan-Color-2001-Coated, 1, 0.95999146, 0.52999878, 0.23999023);fill-opacity:1;fill-rule:nonzero;stroke:none"
       transform="matrix(0.35277776,0,0,-0.35277776,119.13828,162.90998)"
       clip-path="url(#clipPath76)" />
    <path
       id="path77"
       d="m 0,0 c -0.065,-0.287 -0.199,-0.549 -0.308,-0.82 -1.296,-3.248 -2.596,-6.496 -3.894,-9.743 -0.417,-1.044 -0.84,-2.085 -1.245,-3.134 -0.195,-0.503 -0.554,-0.752 -1.078,-0.789 -0.34,-0.025 -0.681,-0.043 -1.021,-0.053 -0.288,-0.007 -0.306,0.021 -0.198,0.3 0.574,1.483 1.15,2.967 1.725,4.449 1.211,3.13 2.422,6.258 3.634,9.387 0.053,0.138 0.088,0.289 0.195,0.403 z"
       style="fill:#14274d icc-color(Japan-Color-2001-Coated, 1, 0.95999146, 0.52999878, 0.23999023);fill-opacity:1;fill-rule:nonzero;stroke:none"
       transform="matrix(0.35277776,0,0,-0.35277776,100.79193,162.90998)"
       clip-path="url(#clipPath78)" />
    <path
       id="path79"
       d="m 0,0 c 0.334,-0.089 0.582,-0.3 0.821,-0.539 1.517,-1.52 3.04,-3.034 4.565,-4.546 2.16,-2.144 4.323,-4.282 6.487,-6.423 0.952,-0.941 1.907,-1.88 2.858,-2.821 0.058,-0.058 0.173,-0.108 0.133,-0.203 -0.039,-0.093 -0.155,-0.049 -0.238,-0.055 -0.15,-0.009 -0.307,0.018 -0.451,-0.016 -0.532,-0.121 -0.916,0.119 -1.27,0.473 -1.25,1.249 -2.507,2.491 -3.757,3.739 -2.798,2.794 -5.596,5.589 -8.392,8.384 -0.593,0.594 -1.181,1.194 -1.771,1.791 -0.06,0.061 -0.136,0.113 -0.128,0.216 z"
       style="fill:#14274d icc-color(Japan-Color-2001-Coated, 1, 0.95999146, 0.52999878, 0.23999023);fill-opacity:1;fill-rule:nonzero;stroke:none"
       transform="matrix(0.35277776,0,0,-0.35277776,79.723793,162.90998)"
       clip-path="url(#clipPath80)" />
    <path
       id="path81"
       d="m 0,0 c 0.324,-0.09 0.568,-0.292 0.802,-0.525 1.945,-1.945 3.893,-3.883 5.845,-5.819 2.216,-2.198 4.436,-4.392 6.654,-6.587 0.485,-0.479 0.974,-0.953 1.459,-1.431 0.047,-0.047 0.136,-0.088 0.103,-0.17 -0.032,-0.08 -0.125,-0.051 -0.192,-0.054 -0.285,-0.015 -0.57,-0.02 -0.855,-0.039 -0.202,-0.014 -0.371,0.052 -0.529,0.17 -0.173,0.128 -0.332,0.27 -0.484,0.421 -4.609,4.6 -9.218,9.2 -13.825,13.802 C -1.085,-0.17 -1.19,-0.122 -1.143,0 Z"
       style="fill:#14274d icc-color(Japan-Color-2001-Coated, 1, 0.95999146, 0.52999878, 0.23999023);fill-opacity:1;fill-rule:nonzero;stroke:none"
       transform="matrix(0.35277776,0,0,-0.35277776,125.87531,162.90998)"
       clip-path="url(#clipPath82)" />
    <path
       id="path83"
       d="m 0,0 c 0.099,-0.254 0.052,-0.517 0.028,-0.772 -0.05,-0.572 -0.057,-0.569 -0.631,-0.572 -2.88,-0.012 -5.759,-0.028 -8.639,-0.042 -0.38,-0.002 -0.38,-0.001 -0.381,0.381 0,0.213 -0.001,0.427 10e-4,0.641 10e-4,0.312 0.009,0.323 0.318,0.323 1.405,0.004 2.808,0.002 4.212,0.012 0.491,0.003 0.983,-0.035 1.473,0.029 z"
       style="fill:#14274d icc-color(Japan-Color-2001-Coated, 1, 0.95999146, 0.52999878, 0.23999023);fill-opacity:1;fill-rule:nonzero;stroke:none"
       transform="matrix(0.35277776,0,0,-0.35277776,91.988323,162.90998)"
       clip-path="url(#clipPath84)" />
    <path
       id="path85"
       d="m 0,0 c -0.009,-0.095 -0.078,-0.151 -0.138,-0.214 -0.269,-0.28 -0.54,-0.557 -0.804,-0.843 -0.115,-0.125 -0.24,-0.184 -0.414,-0.185 -2.761,-0.016 -5.521,-0.037 -8.281,-0.055 -0.33,-0.003 -0.332,0 -0.33,0.325 0.002,0.325 0.009,0.649 0.014,0.972 z"
       style="fill:#14274d icc-color(Japan-Color-2001-Coated, 1, 0.95999146, 0.52999878, 0.23999023);fill-opacity:1;fill-rule:nonzero;stroke:none"
       transform="matrix(0.35277776,0,0,-0.35277776,115.07237,162.90998)"
       clip-path="url(#clipPath86)" />
    <path
       id="path87"
       d="m 0,0 c -0.035,-1.893 -0.064,-3.672 -0.102,-5.451 -0.019,-0.909 -0.051,-1.82 -0.079,-2.728 -0.013,-0.456 -0.168,-0.627 -0.625,-0.671 -0.213,-0.02 -0.427,-0.017 -0.642,-0.021 -0.872,-0.02 -1.745,-0.038 -2.617,-0.054 -0.309,-0.005 -0.32,0.008 -0.318,0.321 0.015,2.311 0.013,4.622 0.056,6.932 0.034,1.748 0.011,3.497 0.04,5.245 0.007,0.396 0.019,0.791 0.032,1.186 0.003,0.075 -0.033,0.178 0.054,0.215 0.099,0.044 0.155,-0.056 0.213,-0.115 1.062,-1.055 2.123,-2.114 3.183,-3.172 0.04,-0.039 0.076,-0.082 0.119,-0.116 C -0.147,1.135 0.205,0.624 0,0"
       style="fill:#14274d icc-color(Japan-Color-2001-Coated, 1, 0.95999146, 0.52999878, 0.23999023);fill-opacity:1;fill-rule:nonzero;stroke:none"
       transform="matrix(0.35277776,0,0,-0.35277776,126.85081,164.8909)"
       clip-path="url(#clipPath88)" />
    <path
       id="path89"
       d="m 0,0 c 0.271,-0.014 0.707,0.023 1.143,-0.03 0.351,-0.043 0.601,-0.224 0.768,-0.53 0.263,-0.48 0.445,-0.996 0.652,-1.501 0.812,-1.982 1.613,-3.971 2.426,-5.954 0.119,-0.29 0.127,-0.55 -0.003,-0.842 -0.526,-1.186 -1.035,-2.379 -1.552,-3.569 -0.031,-0.068 -0.039,-0.18 -0.132,-0.178 -0.101,0.003 -0.115,0.119 -0.146,0.196 -0.595,1.559 -1.189,3.119 -1.782,4.679 -0.937,2.469 -1.873,4.939 -2.809,7.41 -0.114,0.3 -0.103,0.316 0.223,0.318 C -0.863,0.001 -0.514,0 0,0"
       style="fill:#14274d icc-color(Japan-Color-2001-Coated, 1, 0.95999146, 0.52999878, 0.23999023);fill-opacity:1;fill-rule:nonzero;stroke:none"
       transform="matrix(0.35277776,0,0,-0.35277776,93.14882,162.92307)"
       clip-path="url(#clipPath90)" />
    <path
       id="path91"
       d="m 0,0 c -0.968,0 -1.936,-0.001 -2.903,0 -0.295,0.001 -0.307,0.014 -0.309,0.31 -0.002,0.237 -0.002,0.474 0,0.711 0.001,0.313 0.01,0.324 0.317,0.324 1.317,0.004 2.635,-0.012 3.951,0.012 1.673,0.032 3.346,0.02 5.02,0.029 C 6.464,1.389 6.468,1.387 6.458,0.989 6.453,0.769 6.42,0.547 6.427,0.327 6.434,0.111 6.357,0.034 6.139,0.037 5.457,0.047 4.774,0.038 4.092,0.038 H 0 Z"
       style="fill:#14274d icc-color(Japan-Color-2001-Coated, 1, 0.95999146, 0.52999878, 0.23999023);fill-opacity:1;fill-rule:nonzero;stroke:none"
       transform="matrix(0.35277776,0,0,-0.35277776,89.726982,168.05489)"
       clip-path="url(#clipPath92)" />
    <path
       id="path93"
       d="m 0,0 c -1.548,0 -3.096,0 -4.643,0.001 -0.071,0 -0.143,-0.003 -0.213,0.004 -0.109,0.013 -0.12,0.064 -0.048,0.139 0.325,0.335 0.651,0.672 0.976,1.007 0.093,0.096 0.216,0.09 0.334,0.09 0.651,0.004 1.302,0.006 1.952,0.011 C 0.46,1.269 2.563,1.286 4.667,1.302 4.999,1.305 5.002,1.299 5.003,0.976 5.005,0.746 4.996,0.517 5.006,0.287 5.016,0.073 4.93,-0.004 4.713,-0.002 3.841,0.006 2.968,0 2.095,0 Z"
       style="fill:#14274d icc-color(Japan-Color-2001-Coated, 1, 0.95999146, 0.52999878, 0.23999023);fill-opacity:1;fill-rule:nonzero;stroke:none"
       transform="matrix(0.35277776,0,0,-0.35277776,115.00361,168.05521)"
       clip-path="url(#clipPath94)" />
    <path
       id="path95"
       d="m 0,0 c -0.856,0 -1.712,0.006 -2.569,-0.004 -0.223,-0.002 -0.318,0.064 -0.303,0.297 0.016,0.269 0.011,0.538 10e-4,0.807 -0.006,0.185 0.069,0.25 0.252,0.249 0.754,-0.005 1.507,-0.016 2.26,0.005 C 1.377,1.4 3.113,1.376 4.85,1.389 5.164,1.392 5.164,1.389 5.161,1.076 5.158,0.807 5.15,0.538 5.151,0.27 5.152,0.111 5.086,0.037 4.923,0.042 4.733,0.048 4.542,0.041 4.352,0.041 2.901,0.042 1.451,-0.021 0,0"
       style="fill:#14274d icc-color(Japan-Color-2001-Coated, 1, 0.95999146, 0.52999878, 0.23999023);fill-opacity:1;fill-rule:nonzero;stroke:none"
       transform="matrix(0.35277776,0,0,-0.35277776,89.636177,165.57511)"
       clip-path="url(#clipPath96)" />
    <path
       id="path97"
       d="m 0,0 h 1.93 v -13.877 c 0,-1.19 -0.265,-1.72 -1.058,-2.036 -0.846,-0.316 -2.168,-0.37 -4.176,-0.345 -0.107,0.53 -0.424,1.35 -0.715,1.877 1.614,-0.052 3.04,-0.052 3.436,-0.025 0.451,0.025 0.583,0.134 0.583,0.529 z m -3.489,-11.524 h -1.824 v 10.732 h 1.824 z m -6.927,5.181 h -5.842 v -2.644 h 5.842 z m -5.842,1.532 h 5.842 v 2.592 h -5.842 z m 7.746,-9.277 c 0,-1.005 -0.238,-1.509 -0.952,-1.825 -0.74,-0.316 -1.877,-0.316 -3.675,-0.316 -0.105,0.501 -0.37,1.215 -0.634,1.717 1.322,-0.053 2.511,-0.053 2.856,-0.026 0.396,0.026 0.501,0.132 0.501,0.475 v 3.516 h -5.842 v -5.682 h -1.877 v 15.702 h 9.623 z M 3.701,3.623 V 1.825 h -23.475 v 1.798 h 6.477 c -0.476,1.031 -1.507,2.458 -2.406,3.515 l 1.798,0.689 c 1.031,-1.111 2.141,-2.672 2.643,-3.703 l -1.295,-0.501 h 7.877 c 0.899,1.268 1.904,3.014 2.486,4.283 L -0.132,7.218 C -0.846,6.001 -1.719,4.706 -2.485,3.623 Z"
       style="fill:#14274d icc-color(Japan-Color-2001-Coated, 1, 0.95999146, 0.52999878, 0.23999023);fill-opacity:1;fill-rule:nonzero;stroke:none"
       transform="matrix(0.35277776,0,0,-0.35277776,96.91945,154.55493)"
       clip-path="url(#clipPath98)" />
    <path
       id="path99"
       d="m 465.356,172.475 h 15.386 v -1.347 h -15.386 z m 13.404,7.428 h -13.985 v -1.666 h 13.985 z m 0,2.988 h -13.985 v -1.638 h 13.985 z m 1.929,-6.08 h -17.817 v 7.481 h 17.817 z m 1.242,-9.782 c -1.136,-0.792 -2.617,-1.532 -3.912,-2.087 1.665,-0.821 3.648,-1.348 5.842,-1.666 -0.423,-0.397 -0.899,-1.112 -1.163,-1.638 -4.891,0.871 -8.723,3.118 -10.865,6.582 h -3.331 v -4.549 l 5.367,1.111 c -0.079,-0.475 -0.132,-1.162 -0.106,-1.533 -6.345,-1.507 -7.191,-1.717 -7.692,-2.036 -0.133,0.476 -0.556,1.244 -0.873,1.641 0.528,0.264 1.374,0.845 1.374,1.956 v 3.41 h -2.987 c -0.291,-2.433 -0.898,-5.076 -2.299,-7.112 -0.345,0.344 -1.217,0.9 -1.666,1.111 1.956,2.853 2.194,6.741 2.194,9.516 v 3.596 h 21.069 v -1.509 h -19.112 v -2.139 c 0,-0.609 -0.027,-1.27 -0.053,-1.956 h 19.588 v -1.507 h -9.569 c 0.686,-0.926 1.639,-1.772 2.748,-2.458 1.402,0.633 3.067,1.558 4.098,2.247 z"
       style="fill:#14274d icc-color(Japan-Color-2001-Coated, 1, 0.95999146, 0.52999878, 0.23999023);fill-opacity:1;fill-rule:nonzero;stroke:none"
       transform="matrix(0.35277776,0,0,-0.35277776,-50.14563,217.19991)"
       clip-path="url(#clipPath100)" />
  </g>
</svg>
